<svg xmlns="http://www.w3.org/2000/svg" viewBox="0 0 400 300">
  <rect width="400" height="300" fill="#1a1a2e"/>

  <!-- Title -->
  <text x="200" y="25" text-anchor="middle" font-family="Arial, Helvetica, sans-serif" font-size="15" font-weight="bold" fill="#ffffff">States of Matter</text>
  <text x="200" y="43" text-anchor="middle" font-family="Arial, Helvetica, sans-serif" font-size="12" fill="#ffb74d">Particle arrangement</text>

  <!-- Three boxes: Solid (left), Liquid (centre), Gas (right) -->
  <!-- Each box: ~105w x 140h -->

  <!-- SOLID box -->
  <rect x="20" y="60" width="105" height="140" fill="none" stroke="#4fc3f7" stroke-width="1.5" rx="3"/>
  <!-- Tightly packed regular grid of particles -->
  <!-- Row 1 -->
  <circle cx="38" cy="78" r="8" fill="none" stroke="#4fc3f7" stroke-width="1.5"/>
  <circle cx="55" cy="78" r="8" fill="none" stroke="#4fc3f7" stroke-width="1.5"/>
  <circle cx="72" cy="78" r="8" fill="none" stroke="#4fc3f7" stroke-width="1.5"/>
  <circle cx="89" cy="78" r="8" fill="none" stroke="#4fc3f7" stroke-width="1.5"/>
  <circle cx="106" cy="78" r="8" fill="none" stroke="#4fc3f7" stroke-width="1.5"/>
  <!-- Row 2 (offset) -->
  <circle cx="46" cy="94" r="8" fill="none" stroke="#4fc3f7" stroke-width="1.5"/>
  <circle cx="63" cy="94" r="8" fill="none" stroke="#4fc3f7" stroke-width="1.5"/>
  <circle cx="80" cy="94" r="8" fill="none" stroke="#4fc3f7" stroke-width="1.5"/>
  <circle cx="97" cy="94" r="8" fill="none" stroke="#4fc3f7" stroke-width="1.5"/>
  <!-- Row 3 -->
  <circle cx="38" cy="110" r="8" fill="none" stroke="#4fc3f7" stroke-width="1.5"/>
  <circle cx="55" cy="110" r="8" fill="none" stroke="#4fc3f7" stroke-width="1.5"/>
  <circle cx="72" cy="110" r="8" fill="none" stroke="#4fc3f7" stroke-width="1.5"/>
  <circle cx="89" cy="110" r="8" fill="none" stroke="#4fc3f7" stroke-width="1.5"/>
  <circle cx="106" cy="110" r="8" fill="none" stroke="#4fc3f7" stroke-width="1.5"/>
  <!-- Row 4 (offset) -->
  <circle cx="46" cy="126" r="8" fill="none" stroke="#4fc3f7" stroke-width="1.5"/>
  <circle cx="63" cy="126" r="8" fill="none" stroke="#4fc3f7" stroke-width="1.5"/>
  <circle cx="80" cy="126" r="8" fill="none" stroke="#4fc3f7" stroke-width="1.5"/>
  <circle cx="97" cy="126" r="8" fill="none" stroke="#4fc3f7" stroke-width="1.5"/>
  <!-- Row 5 -->
  <circle cx="38" cy="142" r="8" fill="none" stroke="#4fc3f7" stroke-width="1.5"/>
  <circle cx="55" cy="142" r="8" fill="none" stroke="#4fc3f7" stroke-width="1.5"/>
  <circle cx="72" cy="142" r="8" fill="none" stroke="#4fc3f7" stroke-width="1.5"/>
  <circle cx="89" cy="142" r="8" fill="none" stroke="#4fc3f7" stroke-width="1.5"/>
  <circle cx="106" cy="142" r="8" fill="none" stroke="#4fc3f7" stroke-width="1.5"/>
  <!-- Row 6 (offset) -->
  <circle cx="46" cy="158" r="8" fill="none" stroke="#4fc3f7" stroke-width="1.5"/>
  <circle cx="63" cy="158" r="8" fill="none" stroke="#4fc3f7" stroke-width="1.5"/>
  <circle cx="80" cy="158" r="8" fill="none" stroke="#4fc3f7" stroke-width="1.5"/>
  <circle cx="97" cy="158" r="8" fill="none" stroke="#4fc3f7" stroke-width="1.5"/>
  <!-- Row 7 -->
  <circle cx="38" cy="174" r="8" fill="none" stroke="#4fc3f7" stroke-width="1.5"/>
  <circle cx="55" cy="174" r="8" fill="none" stroke="#4fc3f7" stroke-width="1.5"/>
  <circle cx="72" cy="174" r="8" fill="none" stroke="#4fc3f7" stroke-width="1.5"/>
  <circle cx="89" cy="174" r="8" fill="none" stroke="#4fc3f7" stroke-width="1.5"/>
  <circle cx="106" cy="174" r="8" fill="none" stroke="#4fc3f7" stroke-width="1.5"/>
  <!-- Row 8 (offset) -->
  <circle cx="46" cy="190" r="8" fill="none" stroke="#4fc3f7" stroke-width="1.5"/>
  <circle cx="63" cy="190" r="8" fill="none" stroke="#4fc3f7" stroke-width="1.5"/>
  <circle cx="80" cy="190" r="8" fill="none" stroke="#4fc3f7" stroke-width="1.5"/>
  <circle cx="97" cy="190" r="8" fill="none" stroke="#4fc3f7" stroke-width="1.5"/>
  <!-- Label -->
  <text x="72" y="218" text-anchor="middle" font-family="Arial, Helvetica, sans-serif" font-size="13" font-weight="bold" fill="#ffffff">Solid</text>

  <!-- LIQUID box -->
  <rect x="148" y="60" width="105" height="140" fill="none" stroke="#4fc3f7" stroke-width="1.5" rx="3"/>
  <!-- Loosely packed irregular particles -->
  <circle cx="168" cy="80" r="8" fill="none" stroke="#ffb74d" stroke-width="1.5"/>
  <circle cx="188" cy="75" r="8" fill="none" stroke="#ffb74d" stroke-width="1.5"/>
  <circle cx="210" cy="82" r="8" fill="none" stroke="#ffb74d" stroke-width="1.5"/>
  <circle cx="232" cy="76" r="8" fill="none" stroke="#ffb74d" stroke-width="1.5"/>
  <circle cx="160" cy="96" r="8" fill="none" stroke="#ffb74d" stroke-width="1.5"/>
  <circle cx="180" cy="94" r="8" fill="none" stroke="#ffb74d" stroke-width="1.5"/>
  <circle cx="200" cy="98" r="8" fill="none" stroke="#ffb74d" stroke-width="1.5"/>
  <circle cx="222" cy="93" r="8" fill="none" stroke="#ffb74d" stroke-width="1.5"/>
  <circle cx="240" cy="97" r="8" fill="none" stroke="#ffb74d" stroke-width="1.5"/>
  <circle cx="165" cy="113" r="8" fill="none" stroke="#ffb74d" stroke-width="1.5"/>
  <circle cx="187" cy="115" r="8" fill="none" stroke="#ffb74d" stroke-width="1.5"/>
  <circle cx="209" cy="112" r="8" fill="none" stroke="#ffb74d" stroke-width="1.5"/>
  <circle cx="233" cy="114" r="8" fill="none" stroke="#ffb74d" stroke-width="1.5"/>
  <circle cx="158" cy="132" r="8" fill="none" stroke="#ffb74d" stroke-width="1.5"/>
  <circle cx="178" cy="130" r="8" fill="none" stroke="#ffb74d" stroke-width="1.5"/>
  <circle cx="200" cy="134" r="8" fill="none" stroke="#ffb74d" stroke-width="1.5"/>
  <circle cx="222" cy="131" r="8" fill="none" stroke="#ffb74d" stroke-width="1.5"/>
  <circle cx="242" cy="128" r="8" fill="none" stroke="#ffb74d" stroke-width="1.5"/>
  <circle cx="168" cy="150" r="8" fill="none" stroke="#ffb74d" stroke-width="1.5"/>
  <circle cx="190" cy="148" r="8" fill="none" stroke="#ffb74d" stroke-width="1.5"/>
  <circle cx="212" cy="152" r="8" fill="none" stroke="#ffb74d" stroke-width="1.5"/>
  <circle cx="234" cy="147" r="8" fill="none" stroke="#ffb74d" stroke-width="1.5"/>
  <circle cx="160" cy="168" r="8" fill="none" stroke="#ffb74d" stroke-width="1.5"/>
  <circle cx="182" cy="165" r="8" fill="none" stroke="#ffb74d" stroke-width="1.5"/>
  <circle cx="204" cy="170" r="8" fill="none" stroke="#ffb74d" stroke-width="1.5"/>
  <circle cx="226" cy="166" r="8" fill="none" stroke="#ffb74d" stroke-width="1.5"/>
  <circle cx="244" cy="163" r="8" fill="none" stroke="#ffb74d" stroke-width="1.5"/>
  <circle cx="170" cy="186" r="8" fill="none" stroke="#ffb74d" stroke-width="1.5"/>
  <circle cx="195" cy="184" r="8" fill="none" stroke="#ffb74d" stroke-width="1.5"/>
  <circle cx="218" cy="188" r="8" fill="none" stroke="#ffb74d" stroke-width="1.5"/>
  <circle cx="238" cy="182" r="8" fill="none" stroke="#ffb74d" stroke-width="1.5"/>
  <!-- Label -->
  <text x="200" y="218" text-anchor="middle" font-family="Arial, Helvetica, sans-serif" font-size="13" font-weight="bold" fill="#ffffff">Liquid</text>

  <!-- GAS box -->
  <rect x="276" y="60" width="105" height="140" fill="none" stroke="#4fc3f7" stroke-width="1.5" rx="3"/>
  <!-- Widely spaced random particles -->
  <circle cx="295" cy="80" r="8" fill="none" stroke="#81c784" stroke-width="1.5"/>
  <circle cx="350" cy="90" r="8" fill="none" stroke="#81c784" stroke-width="1.5"/>
  <circle cx="310" cy="115" r="8" fill="none" stroke="#81c784" stroke-width="1.5"/>
  <circle cx="360" cy="130" r="8" fill="none" stroke="#81c784" stroke-width="1.5"/>
  <circle cx="290" cy="145" r="8" fill="none" stroke="#81c784" stroke-width="1.5"/>
  <circle cx="335" cy="155" r="8" fill="none" stroke="#81c784" stroke-width="1.5"/>
  <circle cx="370" cy="170" r="8" fill="none" stroke="#81c784" stroke-width="1.5"/>
  <circle cx="300" cy="178" r="8" fill="none" stroke="#81c784" stroke-width="1.5"/>
  <circle cx="345" cy="185" r="8" fill="none" stroke="#81c784" stroke-width="1.5"/>
  <!-- Label -->
  <text x="328" y="218" text-anchor="middle" font-family="Arial, Helvetica, sans-serif" font-size="13" font-weight="bold" fill="#ffffff">Gas</text>

  <!-- Description labels -->
  <text x="72" y="240" text-anchor="middle" font-family="Arial, Helvetica, sans-serif" font-size="10" fill="#81c784">Fixed, regular</text>
  <text x="72" y="252" text-anchor="middle" font-family="Arial, Helvetica, sans-serif" font-size="10" fill="#81c784">arrangement</text>
  <text x="200" y="240" text-anchor="middle" font-family="Arial, Helvetica, sans-serif" font-size="10" fill="#81c784">Close but</text>
  <text x="200" y="252" text-anchor="middle" font-family="Arial, Helvetica, sans-serif" font-size="10" fill="#81c784">irregular</text>
  <text x="328" y="240" text-anchor="middle" font-family="Arial, Helvetica, sans-serif" font-size="10" fill="#81c784">Far apart,</text>
  <text x="328" y="252" text-anchor="middle" font-family="Arial, Helvetica, sans-serif" font-size="10" fill="#81c784">random</text>
</svg>