<svg xmlns="http://www.w3.org/2000/svg" viewBox="0 0 400 430">
  <rect width="400" height="430" fill="#1a1a2e"/>

  <text x="200" y="18" text-anchor="middle" dominant-baseline="central"
        font-family="Arial, Helvetica, sans-serif" font-size="14" font-weight="bold" fill="#ffffff">Bromine Water Test</text>

  <!-- Section 1: Chemical equation -->
  <text x="116" y="60" text-anchor="middle" dominant-baseline="central" font-family="Arial, Helvetica, sans-serif" font-size="14" fill="#E69138">Br</text>
  <line x1="126" y1="60" x2="134" y2="60" stroke="#E69138" stroke-width="1.5"/>
  <text x="144" y="60" text-anchor="middle" dominant-baseline="central" font-family="Arial, Helvetica, sans-serif" font-size="14" fill="#E69138">Br</text>
  <text x="130" y="98" text-anchor="middle" dominant-baseline="central" font-family="Arial, Helvetica, sans-serif" font-size="14" fill="#b0b0c8">BROMINE</text>
  <text x="185" y="60" text-anchor="middle" dominant-baseline="central" font-family="Arial, Helvetica, sans-serif" font-size="24" font-weight="bold" fill="#2ecc71">+</text>
  <text x="229" y="60" text-anchor="middle" dominant-baseline="central" font-family="Arial, Helvetica, sans-serif" font-size="14" fill="#ffffff">C</text>
  <text x="215" y="44" text-anchor="middle" dominant-baseline="central" font-family="Arial, Helvetica, sans-serif" font-size="14" fill="#ffffff">H</text>
  <line x1="224" y1="54" x2="220" y2="50" stroke="#ffffff" stroke-width="1"/>
  <text x="215" y="76" text-anchor="middle" dominant-baseline="central" font-family="Arial, Helvetica, sans-serif" font-size="14" fill="#ffffff">H</text>
  <line x1="224" y1="66" x2="220" y2="70" stroke="#ffffff" stroke-width="1"/>
  <text x="251" y="60" text-anchor="middle" dominant-baseline="central" font-family="Arial, Helvetica, sans-serif" font-size="14" fill="#ffffff">C</text>
  <text x="265" y="44" text-anchor="middle" dominant-baseline="central" font-family="Arial, Helvetica, sans-serif" font-size="14" fill="#ffffff">H</text>
  <line x1="256" y1="54" x2="260" y2="50" stroke="#ffffff" stroke-width="1"/>
  <text x="265" y="76" text-anchor="middle" dominant-baseline="central" font-family="Arial, Helvetica, sans-serif" font-size="14" fill="#ffffff">H</text>
  <line x1="256" y1="66" x2="260" y2="70" stroke="#ffffff" stroke-width="1"/>
  <line x1="237" y1="58" x2="243" y2="58" stroke="#ffffff" stroke-width="1"/>
  <line x1="237" y1="62" x2="243" y2="62" stroke="#ffffff" stroke-width="1"/>
  <text x="240" y="98" text-anchor="middle" dominant-baseline="central" font-family="Arial, Helvetica, sans-serif" font-size="14" fill="#b0b0c8">ETHENE</text>
  <line x1="185" y1="92" x2="185" y2="155" stroke="#2ecc71" stroke-width="3"/>
  <polygon points="185,163 179,153 191,153" fill="#2ecc71"/>
  <rect x="155" y="105" width="60" height="28" fill="#1a1a2e"/>
  <text x="185" y="115" text-anchor="middle" dominant-baseline="central" font-family="Arial, Helvetica, sans-serif" font-size="14" fill="#2ecc71" font-weight="bold">ROOM</text>
  <text x="185" y="127" text-anchor="middle" dominant-baseline="central" font-family="Arial, Helvetica, sans-serif" font-size="14" fill="#2ecc71" font-weight="bold">TEMP.</text>
  <text x="152" y="195" text-anchor="middle" dominant-baseline="central" font-family="Arial, Helvetica, sans-serif" font-size="14" fill="#ffffff">H</text>
  <line x1="166" y1="195" x2="160" y2="195" stroke="#ffffff" stroke-width="1"/>
  <text x="174" y="195" text-anchor="middle" dominant-baseline="central" font-family="Arial, Helvetica, sans-serif" font-size="14" fill="#ffffff">C</text>
  <text x="174" y="171" text-anchor="middle" dominant-baseline="central" font-family="Arial, Helvetica, sans-serif" font-size="14" fill="#ffffff">H</text>
  <line x1="174" y1="187" x2="174" y2="179" stroke="#ffffff" stroke-width="1"/>
  <text x="174" y="219" text-anchor="middle" dominant-baseline="central" font-family="Arial, Helvetica, sans-serif" font-size="14" fill="#E69138">Br</text>
  <line x1="174" y1="203" x2="174" y2="211" stroke="#E69138" stroke-width="1.5"/>
  <line x1="182" y1="195" x2="188" y2="195" stroke="#ffffff" stroke-width="1"/>
  <text x="196" y="195" text-anchor="middle" dominant-baseline="central" font-family="Arial, Helvetica, sans-serif" font-size="14" fill="#ffffff">C</text>
  <text x="196" y="171" text-anchor="middle" dominant-baseline="central" font-family="Arial, Helvetica, sans-serif" font-size="14" fill="#ffffff">H</text>
  <line x1="196" y1="187" x2="196" y2="179" stroke="#ffffff" stroke-width="1"/>
  <text x="196" y="219" text-anchor="middle" dominant-baseline="central" font-family="Arial, Helvetica, sans-serif" font-size="14" fill="#E69138">Br</text>
  <line x1="196" y1="203" x2="196" y2="211" stroke="#E69138" stroke-width="1.5"/>
  <text x="218" y="195" text-anchor="middle" dominant-baseline="central" font-family="Arial, Helvetica, sans-serif" font-size="14" fill="#ffffff">H</text>
  <line x1="204" y1="195" x2="210" y2="195" stroke="#ffffff" stroke-width="1"/>
  <text x="185" y="235" text-anchor="middle" dominant-baseline="central" font-family="Arial, Helvetica, sans-serif" font-size="14" fill="#b0b0c8">1,2-DIBROMOETHANE</text>
  <text x="185" y="249" text-anchor="middle" dominant-baseline="central" font-family="Arial, Helvetica, sans-serif" font-size="14" fill="#b0b0c8">ADDITION REACTION</text>

  <!-- Section 2: Test tube diagram -->
  <line x1="30" y1="265" x2="370" y2="265" stroke="#2a2a4e" stroke-width="0.5"/>
  <text x="200" y="281" text-anchor="middle" dominant-baseline="central" font-family="Arial, Helvetica, sans-serif" font-size="14" fill="#ffffff" font-weight="bold">Practical Test</text>
  <path d="M 82 315 L 82 375 Q 82 390, 100 390 Q 118 390, 118 375 L 118 315" stroke="#ffffff" stroke-width="1.2" fill="#E69138" fill-opacity="0.35"/>
  <path d="M 82 315 L 82 300 M 118 315 L 118 300" stroke="#ffffff" stroke-width="1.2" fill="none"/>
  <line x1="80" y1="300" x2="82" y2="300" stroke="#ffffff" stroke-width="1.2"/>
  <line x1="118" y1="300" x2="120" y2="300" stroke="#ffffff" stroke-width="1.2"/>
  <text x="100" y="281" text-anchor="middle" dominant-baseline="central" font-family="Arial, Helvetica, sans-serif" font-size="14" fill="#ffffff">Br<tspan baseline-shift="sub" font-size="0.75em">2</tspan></text>
  <text x="100" y="404" text-anchor="middle" dominant-baseline="central" font-family="Arial, Helvetica, sans-serif" font-size="14" fill="#E69138">BROMINE</text>
  <text x="100" y="418" text-anchor="middle" dominant-baseline="central" font-family="Arial, Helvetica, sans-serif" font-size="14" fill="#E69138">WATER</text>
  <text x="138" y="350" text-anchor="middle" dominant-baseline="central" font-family="Arial, Helvetica, sans-serif" font-size="14" font-weight="bold" fill="#2ecc71">+</text>
  <text x="172" y="350" text-anchor="middle" dominant-baseline="central" font-family="Arial, Helvetica, sans-serif" font-size="14" fill="#ffffff">ETHENE</text>
  <line x1="210" y1="350" x2="260" y2="350" stroke="#2ecc71" stroke-width="3"/>
  <polygon points="268,350 258,344 258,356" fill="#2ecc71"/>
  <rect x="210" y="326" width="50" height="18" fill="#1a1a2e"/>
  <text x="235" y="335" text-anchor="middle" dominant-baseline="central" font-family="Arial, Helvetica, sans-serif" font-size="14" fill="#2ecc71" font-weight="bold">ROOM</text>
  <text x="235" y="365" text-anchor="middle" dominant-baseline="central" font-family="Arial, Helvetica, sans-serif" font-size="14" fill="#2ecc71" font-weight="bold">TEMP.</text>
  <path d="M 292 315 L 292 375 Q 292 390, 310 390 Q 328 390, 328 375 L 328 315" stroke="#ffffff" stroke-width="1.2" fill="#ffffff" fill-opacity="0.08"/>
  <path d="M 292 315 L 292 300 M 328 315 L 328 300" stroke="#ffffff" stroke-width="1.2" fill="none"/>
  <line x1="290" y1="300" x2="292" y2="300" stroke="#ffffff" stroke-width="1.2"/>
  <line x1="328" y1="300" x2="330" y2="300" stroke="#ffffff" stroke-width="1.2"/>
  <text x="310" y="281" text-anchor="middle" dominant-baseline="central" font-family="Arial, Helvetica, sans-serif" font-size="14" fill="#b0b0c8">C<tspan baseline-shift="sub" font-size="0.75em">2</tspan>H<tspan baseline-shift="sub" font-size="0.75em">4</tspan>Br<tspan baseline-shift="sub" font-size="0.75em">2</tspan></text>
  <text x="310" y="404" text-anchor="middle" dominant-baseline="central" font-family="Arial, Helvetica, sans-serif" font-size="14" fill="#b0b0c8">DECOLOURISED</text>
  <text x="310" y="418" text-anchor="middle" dominant-baseline="central" font-family="Arial, Helvetica, sans-serif" font-size="14" fill="#b0b0c8">SOLUTION</text>
</svg>
